<svg id="Objects" xmlns="http://www.w3.org/2000/svg" xmlns:xlink="http://www.w3.org/1999/xlink" width="178.52" height="215.99" viewBox="0 0 178.52 215.99"><defs><style>.cls-1{fill:none;}.cls-2{clip-path:url(#clip-path);}.cls-3{fill:#4a484b;}.cls-4{fill:#fff;}</style><clipPath id="clip-path" transform="translate(-313.12 -86.21)"><circle class="cls-1" cx="402.39" cy="175.47" r="89.26"/></clipPath></defs><title>femaleAvatar</title><g class="cls-2"><circle class="cls-3" cx="89.26" cy="89.26" r="89.26"/><path class="cls-4" d="M403.3,113.39c-8.8.4-21.41,8.75-16.95,19,0.11,0.25.49,0.11,0.49-.13v-0.06c0.08,0.18.14,0.37,0.24,0.55,1.65,3.1,5.46,4,8.64,4.47a48.86,48.86,0,0,0,15,0c3.3-.51,8-0.85,9.36-4.52l0-.07a0.79,0.79,0,0,0,.21-0.37C423,121.56,413.71,112.92,403.3,113.39ZM389,132.48l0-.05a24.82,24.82,0,0,0,4.1,2.42A12.94,12.94,0,0,1,389,132.48Z" transform="translate(-313.12 -86.21)"/><path class="cls-4" d="M420.42,216.48c-3.68-5.34-5.84-10.54-5.7-17.13a1.86,1.86,0,0,0-2.28-1.87,2.08,2.08,0,0,0-.47-0.41c-5.55-3.53-12.71-2.64-18.64-.52a1.52,1.52,0,0,0-.93,1,1.29,1.29,0,0,0-1.07,1.67c1.81,7.74-.95,12.89-4.54,19.42a14.23,14.23,0,0,0-1.43,11.15c2.62,8.88,11.8,13,20.51,12.48,8.42-.47,16.83-4.68,18.08-13.79C424.58,223.91,423,220.18,420.42,216.48Z" transform="translate(-313.12 -86.21)"/><path class="cls-4" d="M436,162.93a51.38,51.38,0,0,0,.1-12.08c-2.54-19.91-29.1-17.75-43.66-17.65-8.75.06-14,4.36-16.37,12.73a64.3,64.3,0,0,0-2.2,17.79A4.28,4.28,0,0,0,370,165c-1.54,1.65-1.6,4.22-1.35,6.32s1.05,4.37,3,5.51a4.5,4.5,0,0,0,3.39.53c0.05,0.32.1,0.64,0.15,1a1.12,1.12,0,0,0,.21.5,38.86,38.86,0,0,0,6.72,15.85c9.16,12.46,26.09,16,38.24,5.7,6.45-5.44,10.26-13.18,12.4-21.22,0.17-.65.35-1.32,0.52-2a1.61,1.61,0,0,0,.66.09C440.23,176.91,441.39,164.48,436,162.93Z" transform="translate(-313.12 -86.21)"/><path class="cls-4" d="M444.41,166.32c-6.81,0-6.81-8.12-7.26-14.73a10.93,10.93,0,0,0-.42-3.85,11.58,11.58,0,0,0-.53-2.07,21.55,21.55,0,0,0-1.11-2.42c-3.3-9.8-13.5-13.87-22.93-16s-22-3.78-28.64,5l0,0c-5.61-.61-8.82,4.15-10.85,8.87-3.06,7.12-4.44,15.78-2.56,23.39l0,0a0.16,0.16,0,0,0,.11.15,0.37,0.37,0,0,0,.57-0.2c1.23-.5,2.58-0.47,3.31.91,0.64,1.21.19,2.58,0.64,3.8a0.19,0.19,0,0,0,.24.12,0.34,0.34,0,0,0,.3,0c7.6-3.9,12.89-11.53,15-19.73,0.07-.17.16-0.33,0.23-0.5a0.88,0.88,0,0,0,0-.63c0.08-.37.17-0.74,0.24-1.12a47.59,47.59,0,0,0,5,6.17,57.82,57.82,0,0,0,12.5,10.64,40.26,40.26,0,0,0,30.92,5.34,9,9,0,0,0,5.48-2.34A0.5,0.5,0,0,0,444.41,166.32Z" transform="translate(-313.12 -86.21)"/><path class="cls-4" d="M400,222.31a2.48,2.48,0,0,0-1.63-.81,20.25,20.25,0,0,0-2.24-.51,0.68,0.68,0,0,0-.36,1.31,18.91,18.91,0,0,0,2,.65,2.8,2.8,0,0,0,1.84.22A0.59,0.59,0,0,0,400,222.31Z" transform="translate(-313.12 -86.21)"/><path class="cls-4" d="M421.89,220.15a1,1,0,0,0-.23-0.22l0-.05a1.09,1.09,0,0,0-2.1-.57,0.71,0.71,0,0,1-.17.24c-1.88.41-3.69,0.88-5.49,1.33-1.64.17-3.12,0.25-3.59,0.29a54.56,54.56,0,0,1-7.78.19c-4.89-.22-9.61-1.9-14.43-2.19a0.77,0.77,0,0,0-1.37-.07c-9.26,18.3-8.4,56.39,20.22,55.07C435.1,272.86,435.28,237.18,421.89,220.15Zm6.39,23.18h0c0,0.47.06,0.94,0.08,1.41a1.19,1.19,0,0,0-1-.89A1.46,1.46,0,0,0,428.29,243.33Zm-39.73,6.05-0.22-.34c0.13-1.06.26-2.11,0.41-3.17C388.65,247,388.59,248.22,388.55,249.39Zm10.6,21.42a26.73,26.73,0,0,0,4.54.92A21,21,0,0,1,399.15,270.8Zm28.95-19.67a27,27,0,0,1-1.4,5.68,1.32,1.32,0,0,0-.43-0.25,25.09,25.09,0,0,0,2.1-8.38C428.31,249.16,428.23,250.14,428.1,251.13Z" transform="translate(-313.12 -86.21)"/><path class="cls-4" d="M450.89,226.36a0.57,0.57,0,0,0-.82-0.17,0.6,0.6,0,0,0-.3-0.26c-8.74-3.54-18.11-7.46-27.35-9.4a0.5,0.5,0,0,0-.47.16,0.54,0.54,0,0,0-.65.42c-3.12,12.89-8.37,24.48-13.95,36.43-8-11.58-15.86-22.5-20.61-35.89a26.11,26.11,0,0,1-1-.53,265.94,265.94,0,0,0-26.49,11.65,0.45,0.45,0,0,0-.24.34,0.32,0.32,0,0,0-.21.19c-3.27,7.71-4.41,16.68-5.51,24.93A171.94,171.94,0,0,0,351.75,283a0.75,0.75,0,0,0,.19.48c4,6.9,12.34,10.85,19.6,13.27A114.13,114.13,0,0,0,402,302a130.61,130.61,0,0,0,31.69-2.37c9.2-1.83,18.74-4.18,26.38-9.82a0.87,0.87,0,0,0,1.48-.62C460.95,268.72,460.9,244.9,450.89,226.36Z" transform="translate(-313.12 -86.21)"/></g></svg>