<svg id="Capa_1" data-name="Capa 1" xmlns="http://www.w3.org/2000/svg" viewBox="0 0 128.44 68"><defs><style>.cls-1{fill:#262424;}.cls-2{fill:#fc8a05;}</style></defs><title>biinLogo85x34</title><path class="cls-1" d="M45.48,68A25.31,25.31,0,0,1,20.19,42.71V2.3a2.3,2.3,0,1,1,4.6,0V42.71A20.37,20.37,0,1,0,45.16,22.34a19.44,19.44,0,0,0-9.53,2.3,2.55,2.55,0,0,1-3.29-1c-0.66-1,0-2.63,1-3.29a24,24,0,0,1,11.5-3A25.31,25.31,0,0,1,70.12,42.71C70.12,56.83,59.28,68,45.48,68Z" transform="translate(-20.19)"/><path class="cls-1" d="M81.95,68a2.25,2.25,0,0,1-2.3-2.3V33.84a2.3,2.3,0,1,1,4.6,0V65.7A2.25,2.25,0,0,1,81.95,68Z" transform="translate(-20.19)"/><path class="cls-1" d="M95.4,68a2.25,2.25,0,0,1-2.3-2.3V33.84a2.3,2.3,0,1,1,4.6,0V65.7C98,67,96.72,68,95.4,68Z" transform="translate(-20.19)"/><path class="cls-2" d="M81.95,22.67A2.83,2.83,0,0,1,79.32,20a2.63,2.63,0,0,1,5.26,0A2.59,2.59,0,0,1,81.95,22.67Z" transform="translate(-20.19)"/><path class="cls-2" d="M95.43,22.67A2.83,2.83,0,0,1,92.8,20a2.63,2.63,0,0,1,5.26,0A2.42,2.42,0,0,1,95.43,22.67Z" transform="translate(-20.19)"/><path class="cls-1" d="M145.68,68a2.25,2.25,0,0,1-2.3-2.3V38.43a15.77,15.77,0,0,0-31.54,0V65.7a2.3,2.3,0,1,1-4.6,0V38.43a20.7,20.7,0,0,1,41.39,0V65.7C148,67,147,68,145.68,68Z" transform="translate(-20.19)"/></svg>