<svg id="Layer_1" data-name="Layer 1" xmlns="http://www.w3.org/2000/svg" viewBox="0 0 444.82 235.49"><defs><style>.cls-1{fill:#262424;}.cls-2{fill:#d35a2f;}</style></defs><title>biinLogo</title><path class="cls-1" d="M124.79,251.57A87.63,87.63,0,0,1,37.19,164V24a8,8,0,1,1,15.93,0V164c0,38.68,31.85,70.53,70.53,70.53s70.53-31.85,70.53-70.53-31.85-70.53-70.53-70.53c-11.38,0-22.75,2.28-33,8-4.55,2.28-9.1,0-11.38-3.41s0-9.1,3.41-11.38a83,83,0,0,1,39.82-10.24,87.63,87.63,0,0,1,87.6,87.6C210.11,212.89,172.57,251.57,124.79,251.57Z" transform="translate(-37.19 -16.08)"/><path class="cls-1" d="M251.06,251.57a7.78,7.78,0,0,1-8-8V133.26a8,8,0,1,1,15.93,0V243.61A7.78,7.78,0,0,1,251.06,251.57Z" transform="translate(-37.19 -16.08)"/><path class="cls-1" d="M297.66,251.57a7.78,7.78,0,0,1-8-8V133.26a8,8,0,1,1,15.93,0V243.61C306.76,248.16,302.21,251.57,297.66,251.57Z" transform="translate(-37.19 -16.08)"/><path class="cls-2" d="M251.06,94.58c-4.55,0-9.1-4.55-9.1-9.1s4.55-9.1,9.1-9.1,9.1,4.55,9.1,9.1A9,9,0,0,1,251.06,94.58Z" transform="translate(-37.19 -16.08)"/><path class="cls-2" d="M297.75,94.58c-4.55,0-9.1-4.55-9.1-9.1s4.55-9.1,9.1-9.1,9.1,4.55,9.1,9.1C306.85,91.17,303.44,94.58,297.75,94.58Z" transform="translate(-37.19 -16.08)"/><path class="cls-1" d="M471.77,251.57a7.78,7.78,0,0,1-8-8V149.19c0-29.58-25-54.61-54.61-54.61s-54.61,25-54.61,54.61v94.42a8,8,0,1,1-15.93,0V149.19a71.67,71.67,0,0,1,143.34,0v94.42C479.73,248.16,476.32,251.57,471.77,251.57Z" transform="translate(-37.19 -16.08)"/></svg>